<svg xmlns="http://www.w3.org/2000/svg" viewBox="0 0 30.54 30.54"><defs><style>.cls-1{fill:#fff;fill-rule:evenodd;}</style></defs><title>linkedin</title><g id="Layer_2" data-name="Layer 2"><g id="Layer_1-2" data-name="Layer 1"><rect width="30.54" height="30.54" rx="4.24" ry="4.24"/><path class="cls-1" d="M10.7,23.52V10.36H6.33V23.52Zm-2.19-15A2.28,2.28,0,1,0,8.54,4a2.28,2.28,0,1,0-.06,4.55Z"/><path class="cls-1" d="M13.12,23.52h4.37V16.17a3,3,0,0,1,.14-1.07,2.4,2.4,0,0,1,2.24-1.6c1.58,0,2.22,1.21,2.22,3v7h4.37V16c0-4-2.16-5.92-5-5.92a4.36,4.36,0,0,0-4,2.22h0V10.36H13.12c.06,1.23,0,13.16,0,13.16Z"/></g></g></svg>