<svg xmlns="http://www.w3.org/2000/svg" viewBox="0 0 30.54 30.54"><defs><style>.cls-1{fill:#fff;}</style></defs><title>twitter</title><g id="Layer_2" data-name="Layer 2"><g id="Layer_1-2" data-name="Layer 1"><rect width="30.54" height="30.54" rx="4.24" ry="4.24"/><path class="cls-1" d="M27.18,7.89a9.77,9.77,0,0,1-2.81.77A4.9,4.9,0,0,0,26.52,6a9.78,9.78,0,0,1-3.1,1.18,4.89,4.89,0,0,0-8.32,4.46A13.87,13.87,0,0,1,5,6.49,4.89,4.89,0,0,0,6.53,13a4.86,4.86,0,0,1-2.21-.61s0,0,0,.06a4.89,4.89,0,0,0,3.92,4.79A4.9,4.9,0,0,1,7,17.42,4.83,4.83,0,0,1,6,17.33a4.89,4.89,0,0,0,4.56,3.39,9.8,9.8,0,0,1-6.07,2.09,10,10,0,0,1-1.17-.07A13.89,13.89,0,0,0,24.75,11c0-.21,0-.42,0-.63A9.94,9.94,0,0,0,27.18,7.89Z"/></g></g></svg>